<?xml version="1.0" encoding="utf-8" ?>
<svg xmlns="http://www.w3.org/2000/svg" xmlns:xlink="http://www.w3.org/1999/xlink" width="1024" height="1024">
	<path fill="#FEFEFE" d="M0 0L1024 0L1024 1024L0 1024L0 0Z"/>
	<path fill="#491D30" d="M816.099 654.925C816.216 654.853 816.334 654.783 816.449 654.709C822.463 650.85 830.419 642.482 831.987 635.308C832.811 631.537 833.482 627.417 832.553 623.633L832.992 623.499C834.683 626.191 833.745 632.807 833.077 635.898C831.229 644.449 820.852 652.978 813.927 657.692C811.427 659.393 807.54 661.107 805.765 663.572C804.306 665.6 804.181 667.731 803.882 670.123C803.805 670.74 803.859 670.499 803.61 671.086C803.448 673.193 802.741 675.35 802.232 677.401C799.819 677.055 797.417 676.601 795.015 676.186C795.515 673.439 796.004 670.819 796.947 668.181C797.086 665.962 797.386 664.099 798.09 661.987C798.982 660.828 800.009 659.878 801.073 658.883C802.493 659.768 803.121 660.401 804.818 660.425L805.513 659.587L805.881 659.535C806.208 659.606 806.528 659.723 806.861 659.746C809.503 659.927 814.187 656.676 816.099 654.925Z"/>
	<path fill="#2B283D" d="M796.947 668.181C796.788 669.748 796.682 670.853 797.223 672.382L797.738 672.411C798.422 671.267 799.09 670.13 799.699 668.943C799.348 669.98 798.599 671.536 798.976 672.587L799.678 672.596C800.353 671.852 800.705 671.459 800.89 670.458L800.922 671.212L801.149 669.742C801.668 670.975 801.873 672.03 802.083 673.338C802.484 672.528 802.795 671.852 802.963 670.96L803.61 671.086C803.448 673.193 802.741 675.35 802.232 677.401C799.819 677.055 797.417 676.601 795.015 676.186C795.515 673.439 796.004 670.819 796.947 668.181Z"/>
	<path fill="#2B283D" d="M726.896 679.294C729.756 680.921 735.698 690.43 738.355 693.401C749.826 706.227 762.572 717.972 774.198 730.686C774.011 730.621 773.819 730.569 773.636 730.492C770.089 728.991 766.427 725.636 763.364 723.283C747.704 711.254 734.364 698.044 726.896 679.294Z"/>
	<path fill="#2B283D" d="M764.774 404.539C766.549 404.455 768.72 404.37 770.379 405.083Q770.712 405.228 771.03 405.404Q771.348 405.58 771.647 405.786Q771.947 405.993 772.224 406.227Q772.502 406.461 772.756 406.721Q773.01 406.982 773.237 407.265Q773.464 407.549 773.663 407.853Q773.862 408.158 774.03 408.48Q774.198 408.802 774.334 409.139C775.438 411.905 774.888 415.311 773.622 417.927C771.692 421.911 768.945 423.68 764.921 425.192C762.892 425.439 760.791 425.222 758.913 424.361C757.129 423.542 755.858 422.104 755.213 420.255C754.192 417.328 754.646 413.86 756.035 411.132C757.975 407.319 760.821 405.771 764.774 404.539Z"/>
	<path fill="#9A2536" d="M821.61 611.605C825.098 613.222 828.42 614.972 829.869 618.774C832.331 625.231 831.61 633 828.624 639.105C825.473 645.547 820.224 649.405 816.099 654.925C814.187 656.676 809.503 659.927 806.861 659.746C806.528 659.723 806.208 659.606 805.881 659.535L805.513 659.587C805.967 656.437 814.706 646.376 816.937 642.901C819.266 639.273 821.25 635.436 822.59 631.329C824.836 624.439 824.524 618.575 821.235 612.145L821.61 611.605Z"/>
	<path fill="#FEFEFE" d="M821.235 612.145C824.831 614.54 826.635 618.337 827.498 622.486C828.959 629.515 826.051 637.062 822.08 642.798C817.491 649.426 811.375 653.843 805.881 659.535L805.513 659.587C805.967 656.437 814.706 646.376 816.937 642.901C819.266 639.273 821.25 635.436 822.59 631.329C824.836 624.439 824.524 618.575 821.235 612.145Z"/>
	<path fill="#2B283D" d="M231.255 685.813C231.493 685.816 231.732 685.797 231.968 685.824C233.128 685.954 234.014 686.831 234.758 687.653C240.933 694.489 239.206 712.454 238.642 721.122L233.046 721.059L224.273 721.147C224.238 713.999 223.762 706.474 224.411 699.363C224.931 693.67 226.852 689.458 231.255 685.813Z"/>
	<path fill="#2B283D" d="M186.271 686.329C187.788 686.665 189.045 687.519 190.11 688.637C196.138 694.959 194.07 712.699 193.967 721.043L186.836 721.402L178.613 721.408C178.525 713.48 177.308 703.93 179.1 696.219C180.191 691.521 182.274 688.893 186.271 686.329Z"/>
	<path fill="#2B283D" d="M137.255 685.296C139.112 685.307 140.373 685.999 141.667 687.279C148.273 693.809 146.234 711.483 146.446 720.431L139.875 720.554L130.884 720.462C130.434 716.902 130.446 713.177 130.388 709.582C130.236 700.155 130.266 692.512 137.255 685.296Z"/>
	<path fill="#2B283D" d="M282.46 687.432C284.909 687.389 286.587 687.78 288.373 689.522C294.872 695.864 292.565 713.161 292.452 721.521L286.47 721.61L276.49 721.539C276.497 715.538 276.25 709.518 276.387 703.519C276.529 697.327 277.868 691.835 282.46 687.432Z"/>
	<path fill="#2B283D" d="M666.829 666.893C667.197 667.265 666.979 666.987 667.21 667.883C664.182 675.153 660.27 685.892 653.361 690.194C648.528 693.202 643.286 695.186 639.595 699.816C635.384 705.098 636.514 712.912 631.735 717.995C627.562 722.433 621.412 723.923 616.774 727.67C609.452 733.587 603.143 741.852 596.838 748.839C599.226 742.726 602.493 737.138 606.206 731.744C608.908 728.154 611.54 724.74 615.263 722.112C619.21 719.326 624.664 717.501 627.717 713.689C629.595 711.345 630.428 708.454 631.328 705.644C632.207 702.899 632.961 699.94 634.227 697.348C636.09 693.533 639.005 689.988 641.274 686.384C644.773 680.824 648.006 675.074 651.4 669.445C648.874 676.79 646.314 683.847 642.635 690.724C655.288 686.294 659.767 677.232 666.829 666.893Z"/>
	<path fill="#2B283D" d="M365.803 292.986L369.31 293.877C365.551 304.907 359.468 319.53 358.119 330.854C357.514 335.932 357.812 340.985 358.051 346.075C353.477 347.05 348.9 348.129 344.293 348.932C340.974 335.135 337.372 330.64 327.221 320.926C321.919 315.851 316.792 310.706 311.973 305.165C313.049 304.641 313.912 303.915 314.857 303.19C321.34 310.705 331.852 323.304 342.029 325.581L345.015 324.776L347.087 324.415C348.257 324.681 349.069 324.499 350.229 324.293L351.406 323.993C352.413 323.574 353.217 323.123 354.109 322.494C358.623 315.597 363.022 301.17 365.803 292.986Z"/>
	<path fill="#FEFEFE" d="M353.701 329.085L353.996 329.113C355.446 330.777 354.557 339.101 354.491 341.756C351.981 342.279 349.376 343.034 346.803 342.933L346.019 342.021C344.657 338.719 343.47 335.468 342.48 332.036C346.048 330.679 349.984 329.972 353.701 329.085Z"/>
	<path fill="#9A2536" d="M802.093 608.277C805.358 607.225 808.274 607.185 811.426 608.614C814.631 608.217 819.044 609.655 821.61 611.605L821.235 612.145C824.524 618.575 824.836 624.439 822.59 631.329C821.25 635.436 819.266 639.273 816.937 642.901C814.706 646.376 805.967 656.437 805.513 659.587L804.818 660.425C803.121 660.401 802.493 659.768 801.073 658.883C800.009 659.878 798.982 660.828 798.09 661.987C792.998 653.206 787.998 643.517 786.087 633.466C784.949 627.483 785.226 620.81 788.868 615.685C791.946 611.353 797.001 609.16 802.093 608.277Z"/>
	<path fill="#FEFEFE" d="M799.741 609.94L799.91 610.299C794.737 615.425 792.281 620.995 792.243 628.322C792.211 634.573 793.543 640.802 795.356 646.758C796.547 650.084 797.461 653.297 798.172 656.758C795.316 651.224 792.543 645.176 790.621 639.246C788.421 632.456 786.997 623.91 790.525 617.342C792.331 613.981 796.065 610.953 799.741 609.94Z"/>
	<path fill="#FEFEFE" d="M802.093 608.277C805.358 607.225 808.274 607.185 811.426 608.614L811.262 609.091L812.903 610.127C810.915 613.924 806.152 614.909 803.954 620.719C800.34 630.275 803.113 655.448 801.15 658.613C798.773 655.758 798.413 650.567 797.772 647.021L795.356 646.758C793.543 640.802 792.211 634.573 792.243 628.322C792.281 620.995 794.737 615.425 799.91 610.299L799.741 609.94L802.093 608.277Z"/>
	<path fill="#9A2536" d="M802.093 608.277C805.358 607.225 808.274 607.185 811.426 608.614L811.262 609.091C807.898 609.854 805.244 610.5 802.463 612.668C794.993 623.06 795.635 634.192 797.648 646.293L797.772 647.021L795.356 646.758C793.543 640.802 792.211 634.573 792.243 628.322C792.281 620.995 794.737 615.425 799.91 610.299L799.741 609.94L802.093 608.277Z"/>
	<path fill="#2B283D" d="M753.641 433.558C756.94 433.387 759.968 433.417 762.823 435.366C764.652 436.615 765.958 438.681 766.087 440.908C766.401 446.313 763.877 453.348 762.804 458.786C759.882 473.6 753.061 507.935 755.603 521.486C753.684 522.036 751.74 522.508 749.807 523.01C747.345 523.314 744.994 523.333 742.576 522.681C740.425 522.101 738.563 520.932 737.496 518.927C731.059 506.838 739.585 469.504 742.412 455.753C743.779 449.105 744.873 442.203 746.86 435.722C749.079 434.824 751.341 434.203 753.641 433.558Z"/>
	<path fill="#2B283D" d="M688.707 319.43C692.797 319.978 695.328 320.937 698.753 323.24C688.318 335.395 677.577 347.878 668.169 360.849C671.426 362.797 674.851 364.492 678.215 366.251C682.164 363.863 689.813 356.636 694.386 357.129C695.198 357.216 695.21 357.525 695.671 358.107C695.066 362.245 687.753 368.482 685.147 372.088C686.548 372.851 688.173 373.597 689.45 374.549C690.536 375.359 690.907 375.911 691.099 377.226L690.189 377.992C686.549 378.749 683.824 378.092 680.31 377.175C675.277 381.564 670.93 386.808 665.616 390.857L664.718 390.482C663.356 388.666 662.782 386.582 662.059 384.458C664.616 380.751 667.803 378.034 671.279 375.23L656.112 371.106C650.561 372.962 645.155 375.307 639.732 377.504C632.636 380.367 605.047 392.547 599.035 391.392C596.891 389.587 597.003 386.262 596.745 383.667C603.376 379.251 611.015 375.884 618.053 372.123C625.252 368.277 631.99 363.891 638.624 359.151C636.737 358.412 634.78 357.728 633.001 356.75C629.573 354.866 620.181 348.451 619.44 344.679C619.304 343.985 619.474 344.102 619.995 343.475C627.342 341.291 644.654 348.242 652.006 350.6C664.379 342.667 676.675 328.769 688.707 319.43Z"/>
	<path fill="#2B283D" d="M255.276 379.234C256.306 380.218 256.754 380.947 258.177 381.206L258.79 380.927C259.431 380.641 260.065 380.392 260.724 380.155C256.983 400.435 250.944 420.583 244.278 440.091C239.974 452.685 232.928 464.945 231.604 478.359C230.823 486.271 232.987 494.046 234.884 501.654L209.537 506.535C207.76 499.166 205.736 492.018 201.886 485.406C196.466 476.1 187.546 467.72 180.269 459.836C165.258 443.573 148.883 427.179 136.09 409.089C137.124 408.44 136.651 408.597 137.794 408.395C140.083 407.989 140.49 407.867 142.001 406.102C145.899 411.237 149.716 416.522 153.958 421.379C159.752 428.014 194.727 464.681 200.256 466.048C200.951 466.22 201.866 466.13 202.583 466.098C204.644 466.014 206.523 466.008 208.466 465.211L209.064 465.041C211.882 465.141 215.111 464.019 217.87 463.365L220.285 462.49C222.232 461.785 223.937 460.867 225.739 459.852L226.459 459.651C228.926 455.605 230.586 450.637 232.471 446.277Q239.601 430.037 245.313 413.245Q251.025 396.453 255.276 379.234Z"/>
	<path fill="#FEFEFE" d="M224.564 471.698C226.229 473.446 228.09 488.781 228.758 492.255C223.426 493.549 216.683 496.08 211.265 496.26C208.661 489.37 206.9 482.397 205.23 475.242C211.551 473.732 218.159 472.845 224.564 471.698Z"/>
	<path fill="#2B283D" d="M602.252 481.93C605.719 472.988 609.645 464.017 614.679 455.838C619.234 448.439 630.557 433.473 639.506 431.622C641.687 431.171 643.821 431.651 645.623 432.965C648.988 435.422 652.29 441.038 652.699 445.209C652.841 446.661 652.636 448.222 651.486 449.255C648.674 451.778 644.652 448.95 641.43 449.001C636.186 449.084 632.04 453.581 628.68 457.1C613.5 476.641 608.353 502.61 602.486 526.09C598.538 527.075 594.417 527.804 590.532 526.113C588.487 525.222 586.208 523.343 585.429 521.195C584.219 517.864 584.149 513.567 584.17 510.058C584.237 498.705 588.9 443.749 592.962 435.584C594.151 433.194 596.819 432.442 599.142 431.622C600.439 431.533 601.752 431.44 603.049 431.566C607.259 431.973 610.021 433.916 612.629 437.131C609.391 452.158 603.319 466.388 602.252 481.93Z"/>
	<path fill="#2B283D" d="M452.937 432.679C453.039 432.665 453.139 432.646 453.241 432.637C460.831 431.981 469.981 432.645 475.896 437.969C479.51 441.222 481.312 445.653 481.408 450.476C481.552 457.749 478.19 464.724 473.175 469.858C461.689 481.62 443.358 482.682 427.928 482.792C427.411 490.46 427.846 499.714 432.98 505.901C435.88 509.397 439.956 511.328 444.453 511.699C454.183 512.502 462.214 508.055 469.421 502.031C470.91 504.8 472.692 507.386 474.431 510.002C466.051 518.148 457.454 525.639 445.425 527.265C437.019 528.401 427.718 526.62 420.933 521.39C413.064 515.324 409.286 506.399 408.013 496.747C405.908 480.796 409.856 464.64 419.728 451.869C428.02 441.142 439.542 434.475 452.937 432.679Z"/>
	<path fill="#FEFEFE" d="M450.23 445.101C452.893 445.019 455.599 445.12 457.992 446.433C459.664 447.349 460.838 448.77 461.245 450.648C461.951 453.912 460.432 457.627 458.551 460.234C454.569 465.752 448.944 467.96 442.488 469.003C438.38 469.572 434.186 469.449 430.045 469.47C430.952 466.13 432.048 462.892 433.615 459.798C437.245 452.63 442.479 447.614 450.23 445.101Z"/>
	<path fill="#9A2536" d="M311.973 305.165C308.515 301.982 305.156 297.513 302.667 293.5C297.452 285.088 295.605 276.171 297.924 266.485C300.296 256.582 306.957 247.859 315.661 242.623C324.882 237.075 336.844 234.927 347.319 237.64C356.164 239.932 364.713 245.666 369.35 253.63C376.836 266.486 372.809 280.462 369.31 293.877L365.803 292.986C363.022 301.17 358.623 315.597 354.109 322.494C353.217 323.123 352.413 323.574 351.406 323.993L350.229 324.293C349.069 324.499 348.257 324.681 347.087 324.415L345.015 324.776L342.029 325.581C331.852 323.304 321.34 310.705 314.857 303.19C313.912 303.915 313.049 304.641 311.973 305.165Z"/>
	<path fill="#FEFEFE" d="M348.742 241.632C355.796 243.917 361.855 247.517 365.782 254.029C373.282 266.464 369.054 279.984 365.803 292.986C363.022 301.17 358.623 315.597 354.109 322.494C353.927 318.174 356.716 312.388 357.868 308.138C361.244 295.677 364.28 282.003 363.427 269.039C362.626 256.859 357.829 249.52 348.742 241.632Z"/>
	<path fill="#FEFEFE" d="M314.857 303.19C307.354 294.309 299.51 284.954 300.391 272.523C300.994 264.015 305.304 257.121 311.076 251.133C306.252 260.376 304.335 269.512 307.502 279.678C311.736 293.269 323.456 306.9 333.284 317.076C336.059 319.95 339.483 322.555 342.029 325.581C331.852 323.304 321.34 310.705 314.857 303.19Z"/>
	<path fill="#FEFEFE" d="M331.043 240.239Q331.702 240.285 332.359 240.363Q333.015 240.441 333.667 240.552Q334.318 240.662 334.964 240.804Q335.609 240.945 336.247 241.119Q336.885 241.292 337.514 241.496Q338.143 241.7 338.76 241.935Q339.378 242.169 339.984 242.434Q340.59 242.698 341.182 242.992Q341.774 243.286 342.351 243.608Q342.928 243.93 343.489 244.28Q344.049 244.63 344.592 245.007Q345.135 245.384 345.659 245.787Q346.183 246.19 346.686 246.619Q347.19 247.047 347.672 247.499Q348.154 247.951 348.613 248.427Q349.072 248.902 349.508 249.399C357.747 258.899 358.235 271.964 357.181 283.873Q356.17 294.233 354.419 304.493C353.26 310.91 351.487 317.461 351.406 323.993L350.229 324.293C348.918 318.003 350.091 300.926 350.086 293.455C350.069 270.695 347.304 257.611 330.914 241.257L331.043 240.239Z"/>
	<path fill="#FEFEFE" d="M345.015 324.776C333.94 312.201 318.354 294.352 313.05 278.599C310.113 269.875 310.252 260.556 314.489 252.26C317.698 245.979 322.272 242.71 328.78 240.542C322.276 253.001 319.937 264.47 324.241 278.176C329.311 294.318 338.704 309.81 347.087 324.415L345.015 324.776Z"/>
	<path fill="#2B283D" d="M359.708 409.7Q363.753 409.38 367.807 409.537Q371.862 409.693 375.87 410.323C383.509 411.541 392.398 414.45 397.015 421.074C399.312 424.369 400.089 428.257 399.348 432.201C397.911 439.849 391.631 445.674 385.516 449.896C385.62 448.897 385.698 447.911 385.729 446.907C385.943 440.042 385.378 433.638 380.288 428.459C375.888 423.982 369.911 422.227 363.75 422.304Q362.86 422.311 361.971 422.362Q361.083 422.413 360.198 422.509Q359.313 422.605 358.433 422.744Q357.554 422.884 356.683 423.067Q355.812 423.25 354.951 423.477Q354.09 423.703 353.242 423.972Q352.393 424.241 351.559 424.552Q350.725 424.863 349.908 425.216Q349.09 425.568 348.292 425.96Q347.493 426.353 346.714 426.785Q345.936 427.217 345.18 427.687Q344.424 428.157 343.693 428.665Q342.962 429.172 342.256 429.715Q341.551 430.258 340.874 430.836Q340.197 431.413 339.549 432.024Q338.901 432.635 338.285 433.277C326.358 445.85 321.525 465.701 322.109 482.657C322.414 491.526 325.011 501.404 331.832 507.528C336.64 511.845 343.062 513.468 349.414 512.938C354.825 512.486 359.734 510.294 363.177 506.016C366.03 502.469 370.927 489.427 369.8 485.155C369.43 483.754 369.115 483.588 367.985 482.821C363.221 482.157 356.253 486.006 351.671 487.517C352.596 483.298 352.9 478.272 354.592 474.332L355.609 473.949C370.343 471.612 384.538 468.03 399.555 467.823Q398.52 471.896 397.418 475.951Q396.128 477.002 394.926 478.153C383.437 489.341 384.364 510.109 384.046 525.011Q375.862 524.959 367.679 525.023C367.39 522.605 366.96 520.193 366.59 517.786C359.352 522.085 352.751 525.254 344.303 526.217C334.137 527.375 323.258 525.984 315.07 519.392C305.693 511.842 301.555 500.2 300.444 488.547C298.558 468.762 303.283 446.595 316.2 431.046C327.133 417.885 342.955 411.21 359.708 409.7Z"/>
	<path fill="#2B283D" d="M691.601 431.592C700.161 430.949 708.292 433.076 714.789 438.88C719.76 443.322 721.375 448.517 721.583 455.013C722.301 477.46 714.44 515.008 698.405 531.651C690.935 539.405 681.232 542.74 670.633 542.813C660.491 542.883 648.665 539.941 641.383 532.419C639.238 530.202 637.682 527.45 637.801 524.286C637.957 520.177 640.696 516.746 643.571 514.053C645.647 512.109 648.507 509.77 651.517 510.007C651.843 510.033 652.167 510.075 652.492 510.109C654.871 512.346 656.638 515.184 658.663 517.736C662.769 522.912 667.796 527.099 674.665 527.712C679.018 528.1 683.009 526.556 686.241 523.675C696.528 514.507 697.692 497.361 698.678 484.532C694.292 491.797 688.939 498.354 680.518 501.033C675.05 502.772 668.87 502.805 663.729 500.04C659.301 497.659 656.482 493.465 655.141 488.695C652.019 477.59 655.654 463.67 661.388 453.99C668.461 442.049 678.284 435.073 691.601 431.592Z"/>
	<path fill="#FEFEFE" d="M689.18 444.577C690.717 444.407 692.196 444.314 693.74 444.49C699.348 445.127 702.8 449.034 706.051 453.205C702.733 465.458 696.989 476.656 686.895 484.652C686.615 484.819 686.337 484.99 686.055 485.153C683.572 486.587 680.437 487.764 677.572 486.885C675.867 486.362 674.657 485.145 673.826 483.598C670.922 478.191 672.31 468.826 674.069 463.159C676.666 454.797 681.375 448.659 689.18 444.577Z"/>
	<path fill="#2B283D" d="M830.273 431.651C831.383 431.525 832.447 431.474 833.563 431.507C841.935 431.758 848.908 433.822 854.8 440.072C850.886 457.457 847.819 488.213 851.055 505.558C852.065 510.975 853.983 515.811 856.213 520.83C852.229 523.125 848.041 525.384 843.335 525.586C839.9 525.734 836.574 524.605 834.117 522.158C828.008 516.074 827.596 503.518 827.49 495.437C825.181 499.768 822.886 503.971 820.145 508.051C815.231 515.307 807.969 522.222 799.106 524.037C794.213 525.039 788.573 524.273 784.459 521.309C779.797 517.95 777.732 512.388 776.894 506.897C774.277 489.752 781.786 471.113 791.841 457.546C801.291 444.795 814.226 434.08 830.273 431.651Z"/>
	<path fill="#FEFEFE" d="M831.238 443.601C832.867 443.566 834.701 443.599 836.065 444.555C836.301 447.389 834.5 451.236 833.782 454.062C829.854 469.532 826.255 485.255 815.53 497.779C812.067 501.824 808.122 504.742 802.704 505.169C801.96 504.814 801.184 504.447 800.514 503.962C798.332 502.382 797.058 499.092 796.605 496.54C794.477 484.555 800.806 470.71 807.452 461.12C813.539 452.336 820.359 445.523 831.238 443.601Z"/>
	<path fill="#2B283D" d="M538.392 432.205C538.624 432.187 538.856 432.167 539.088 432.153C547.225 431.655 556.052 434.328 562.123 439.819C568.613 445.69 571.038 453.694 571.486 462.161C572.433 480.019 565.699 499.163 553.727 512.458C545.187 521.943 534.822 527.025 522.068 527.674C514.228 527.842 506.928 525.93 500.864 520.81C493.762 514.813 490.077 505.838 489.313 496.723C487.898 479.852 492.831 463.156 503.867 450.201C512.883 439.62 524.51 433.246 538.392 432.205Z"/>
	<path fill="#FEFEFE" d="M532.789 445.546C535.893 445.375 538.852 445.499 541.677 446.947C545.578 448.949 547.899 452.475 549.125 456.6C553.037 469.76 549.762 489.434 543.016 501.247C539.374 507.625 534.521 512.495 527.273 514.503C524.687 514.562 522.277 514.587 519.824 513.609C516.044 512.101 513.446 509.043 511.897 505.352C506.927 493.508 510.041 475.382 515.037 464C518.862 455.282 523.719 449.029 532.789 445.546Z"/>
	<path fill="#2B283D" d="M692.237 615.423C693.88 615.358 694.723 616.038 695.945 617.027C701.349 621.403 705.929 627.353 710.745 632.407C721.488 643.679 733.444 652.626 747.206 659.88C751.239 662.005 756.317 664.093 759.59 667.326C762.925 670.619 765.481 674.782 768.155 678.612C775.412 689.006 786.644 707.059 796.456 714.081C799.077 715.957 802.022 717.263 805.301 716.776C808.221 716.342 811.111 714.015 813.606 712.516C821.224 707.94 841.033 694.139 848.772 693.042C850.575 692.787 851.847 692.925 853.463 693.794C860.856 697.765 867.685 704.788 874.248 710.044L924.182 750.181C905.861 741.915 889.091 730.079 873.405 717.637C865.251 711.168 857.236 703.954 848.483 698.318C848.297 710.437 852.421 722.353 863.03 729.156C868.263 732.512 873.817 735.099 878.614 739.133C887.074 746.246 893.825 756.956 898.381 766.905C891.034 758.042 882.671 747.65 873.104 741.195C867.259 737.251 860.482 734.763 855.143 730.075C846.568 722.544 844.507 711.856 843.717 701C835.351 706.343 813.693 721.82 804.387 723.147C800.365 723.721 796.512 721.882 793.315 719.604C777.18 708.103 769.823 687.727 756.3 673.836C748.532 665.855 736.239 663.129 727.435 656.203C719.257 649.771 711.991 641.994 704.79 634.509C701.421 631.008 698.115 626.997 694.228 624.079C694.078 623.966 693.925 623.859 693.773 623.749C696.617 638.74 697.059 653.438 701.349 668.294C702.601 667.894 703.896 667.434 705.185 667.175C717.768 664.648 726.73 700.492 731.502 709.014C740.874 725.755 767.778 739.838 783.675 750.769C765.333 744.488 745.263 735.682 732.026 721.052Q729.405 718.17 727.241 714.931Q725.076 711.692 723.416 708.168C719.897 700.804 714.021 677.999 706.846 674.717C705.624 674.158 704.576 674.01 703.337 674.635Q702.957 674.827 702.62 675.087Q702.283 675.346 702.001 675.665Q701.719 675.984 701.502 676.35Q701.285 676.716 701.141 677.116C699.299 682.246 705.689 692.229 708.07 696.7C700.345 688.828 690.3 679.399 685.642 669.273C684.059 665.832 683.156 662.028 682.162 658.381C676.88 656.931 671.416 655.946 666.059 654.793C671.867 654.286 677.55 654.511 683.349 655.034C687.376 663.911 689.51 670.999 696.302 678.274C696.82 671.151 693.765 665.195 692.674 658.307C690.886 647.028 690.968 634.754 692.203 623.393Q681.624 630.742 670.948 637.95C665.4 641.7 659.638 645.222 654.788 649.877C641.718 662.421 632.221 678.15 619.717 691.158C597.881 713.846 561.101 739.918 529.751 745.964C561.269 730.706 591.901 710.948 615.815 685.1C627.306 672.68 637.006 659.308 649.401 647.645Q641.727 647.072 634.036 646.789C625.581 652.506 618.282 660.692 609.338 665.573C602.103 669.522 593.189 669.663 586.509 674.756C582.697 677.663 579.518 681.728 576.092 685.095C566.696 694.325 556.902 702.959 545.535 709.722C551.375 703.9 557.155 698.16 562.554 691.919C551.909 685.243 542.116 677.603 532.575 669.449C530.736 673.334 529.021 677.18 526.657 680.788C524.319 684.356 521.545 687.586 519.337 691.247C519.057 695.616 519.222 700.064 519.223 704.443C499.266 705.271 505.172 712.415 494.226 723.033C478.218 738.561 455.154 747.81 432.914 747.585C437.462 746.402 442.088 745.694 446.612 744.342C463.071 739.425 479.989 730.201 491.483 717.232C495.155 713.089 496.611 707.063 500.679 703.371C504.923 699.519 509.702 699.926 515.039 700.054C514.793 683.002 521.269 684.422 528.62 671.388C523.612 675.107 519.286 679.558 514.03 683.023C508.422 686.719 502.199 689.582 496.227 692.637Q481.377 700.311 466.328 707.585C462.224 704.547 457.965 701.779 453.422 699.444C445.008 706.588 435.958 715.539 426.312 720.84C421.906 723.262 416.884 721.443 412.274 723.275C405.92 725.8 399.869 729.12 393.791 732.234C378.28 740.182 362.668 748.064 345.35 751.142C356.841 745.191 368.366 739.366 379.78 733.248C389.593 727.988 399.567 721.773 410.034 718.001C414.801 716.284 419.125 715.586 424.17 715.389C433.904 708.045 443.334 700.328 452.997 692.897C457.905 694.882 462.663 697.961 467.314 700.514Q488.31 689.642 508.91 678.038C517.027 673.359 524.889 667.822 533.281 663.686C539.483 667.295 560.61 682.222 565.536 687.239C575.949 675.237 580.64 670.345 595.51 664.328C600.413 662.344 605.536 660.546 610.063 657.771C617.793 653.033 624.135 646.145 631.491 640.861L632.016 640.489C638.929 640.498 645.895 641.302 652.825 641.467C665.268 634.857 680.089 623.453 692.237 615.423Z"/>
	<path fill="#2B283D" d="M713.252 339.246C759.845 337.765 806.94 345.057 849.561 364.473C880.52 378.575 910.233 399.811 922.431 432.863C930.553 454.871 928.739 479.269 918.84 500.395C907.916 523.707 888.335 540.134 865.855 551.84C842.141 564.189 815.338 570.974 789.29 576.263C738.794 586.514 689.665 590.008 638.559 594.474C592.191 598.526 545.515 602.847 499.425 609.416Q476.291 612.864 453.368 617.514Q430.446 622.164 407.797 628.004Q385.148 633.845 362.835 640.859Q340.522 647.874 318.606 656.043C314.429 657.75 309.902 658.889 305.515 659.914C310.025 656.423 316.024 654.092 321.139 651.612Q345.445 639.799 370.568 629.841Q381.52 625.613 392.585 621.693Q403.651 617.773 414.822 614.165Q425.994 610.557 437.262 607.263Q448.529 603.969 459.885 600.992Q471.241 598.015 482.676 595.357Q494.11 592.699 505.615 590.363Q517.12 588.026 528.685 586.013Q540.251 584 551.868 582.311Q584.057 577.444 616.453 574.24L698.612 567.068C714.118 565.702 729.814 564.732 745.225 562.557Q765.514 559.78 785.516 555.388Q805.518 550.997 825.104 545.02C845.239 538.946 864.533 532.328 881.227 519.009C897.896 505.71 909.909 487.539 912.179 466.006C914.363 445.291 908.054 425.538 894.881 409.45C859.054 365.695 796.199 348.89 742.545 341.792C732.825 340.506 723.007 340.191 713.252 339.246Z"/>
	<path fill="#2B283D" d="M223.282 548.399C224.213 549.881 223.748 551.804 224.747 553.306C228.234 558.551 240.952 565.108 246.461 571.208C252.296 577.67 252.961 584.187 252.6 592.459C257.417 596.675 261.659 602.476 265.95 607.298C264.528 608.062 262.894 608.887 261.694 609.975C260.786 610.799 260.724 611.659 260.589 612.814C259.984 618.02 260.483 623.675 260.598 628.924Q260.947 641.405 260.873 653.89C270.367 654.904 279.76 654.253 288.976 651.597C297.718 660.05 306.455 673.089 314.293 682.806C312.696 686.544 310.058 690.646 309.238 694.596C307.949 700.802 308.539 707.742 308.544 714.083C308.554 727.586 308.568 740.816 309.684 754.295C297.799 739.198 303.816 714.337 302.512 696.192C301.721 685.177 292.961 679.232 285.272 672.66C278.89 676.919 272.141 682.8 268.367 689.594C264.945 695.754 266.241 726.67 268.735 734.076C271.765 743.069 285.366 741.588 293.129 743.142C297.691 744.055 301.681 745.571 305.867 747.585C295.255 746.795 272.63 748.03 265.059 740.537C256.371 731.937 258.809 705.239 258.482 693.494C257.433 691.966 256.229 690.664 254.967 689.311C254.965 699.041 253.244 739.275 255.311 745.427C257.381 751.589 266.651 756.253 272.205 758.817C263.637 757.18 257.533 754.347 251.603 747.861C251.149 735.378 251.925 722.646 251.991 710.128C252.028 704.413 252.571 698.049 251.377 692.445C249.78 684.958 242.086 677.983 235.872 673.846C229.085 677.634 221.383 682.57 216.407 688.619C215.942 711.716 218.491 736.967 212.405 759.323C210.433 744.063 210.367 728.409 210.286 713.048C210.251 706.467 210.531 699.719 210.064 693.165C209.721 688.361 207.377 685.94 203.932 682.965C192.824 680.865 173.436 681.835 161.316 681.55C150.918 681.306 140.318 680.141 129.942 680.418C128.172 680.465 125.682 680.505 124.176 681.593C122.231 682.999 121.112 686.162 120.762 688.428C119.2 698.52 120.015 709.678 119.878 719.888Q119.562 739.959 118.172 759.984C113.332 736.821 114.442 708.795 114.338 685C110.8 681.486 107.291 678.158 103.49 674.925C104.793 671.711 106.317 669.105 108.537 666.454C117.231 656.075 128.592 647.124 138.751 638.232C144.778 632.958 150.858 626.839 157.549 622.445C154.279 627.8 149.573 632.223 145.27 636.742C150.291 633.58 154.937 629.968 160.162 627.108C168.383 626.786 174.981 629.286 182.775 631.378C182.864 631.273 182.967 631.179 183.041 631.063C184.791 628.33 184.073 616.686 183.112 613.436C181.618 611.865 179.441 611.393 177.438 610.705C182.339 605.107 185.253 598.294 190.931 593.512C190.975 591.178 190.866 588.771 191.142 586.451C192.459 575.381 200.02 567.077 209.175 561.419C212.98 559.068 217.327 556.99 220.766 554.115C222.896 552.333 223.039 551.046 223.282 548.399Z"/>
	<path fill="#FEFEFE" d="M214.234 612.398C214.996 613.621 215.009 614.794 215.087 616.179C215.356 620.976 216.222 645.408 213.744 648.172C213.293 647.72 212.978 647.228 212.618 646.704C211.984 637.913 211.471 620.322 214.234 612.398Z"/>
	<path fill="#FEFEFE" d="M158.989 633.421L159.487 633.569C159.378 634.453 153.382 638.263 152.235 639.191C141.104 648.204 129.128 657.095 119.64 667.881C117.788 669.986 116.301 672.341 114.562 674.537L113.787 674.237C113.177 673.017 112.985 672.885 113.534 671.54C117.272 662.381 149.44 637.6 158.989 633.421Z"/>
	<path fill="#FEFEFE" d="M210.317 592.685C210.414 592.666 210.511 592.64 210.609 592.628C219.745 591.493 245.816 592.443 252.921 598.067L252.822 598.627C249.605 598.944 246.017 597.352 242.807 596.883C239.364 596.381 235.844 596.16 232.377 595.86Q229.51 595.537 226.629 595.368Q223.749 595.199 220.863 595.185Q217.978 595.17 215.096 595.31Q212.214 595.45 209.343 595.744Q206.473 596.038 203.622 596.485Q200.772 596.932 197.949 597.531Q195.126 598.13 192.34 598.879Q189.553 599.629 186.811 600.526C194.393 595.026 201.286 593.932 210.317 592.685Z"/>
	<path fill="#FEFEFE" d="M282.281 656.993L282.933 657.466C282.86 657.606 282.797 657.753 282.715 657.888C280.307 661.854 263.79 677.379 259.254 678.778L258.176 678.037L254.236 675.371C265.927 667.803 267.358 661.67 282.281 656.993Z"/>
	<path fill="#FEFEFE" d="M170.432 634.358C181.357 634.891 210.757 660.949 220.721 669.192L214.688 679.462C214.218 680.245 213.856 680.673 213.118 681.213L212.812 680.703C213.633 677.853 215.119 675.283 216.491 672.67C209.778 664.451 188.693 646.148 179.814 639.85C176.819 637.725 173.711 635.998 170.432 634.358Z"/>
	<path fill="#FEFEFE" d="M218.701 560.553C218.789 562.369 212.307 572.084 211.431 575.7C210.398 579.966 210.898 584.816 211.065 589.173C206.906 589.645 202.764 590.655 198.663 591.488C198.53 590.551 198.651 589.877 198.835 588.949C201.386 576.086 208.047 567.788 218.701 560.553Z"/>
	<path fill="#FEFEFE" d="M224.362 560.402C233.947 567.739 244.115 574.777 245.698 587.794C245.853 589.066 245.741 589.709 244.982 590.713L243.386 590.522Q232.39 588.636 221.239 588.316C221.131 578.571 222.189 569.861 224.362 560.402Z"/>
	<path fill="#FEFEFE" d="M215.287 605.215C226.48 604.79 239.62 604.943 250.362 608.121C243.115 618.796 247.83 633.724 246.807 645.893C246.643 647.848 246.604 649.51 245.111 650.811C243.595 650.941 242.258 651.145 240.787 650.631C239.322 642.014 240.891 631.547 240.559 622.67C240.418 618.9 239.636 614.489 236.753 611.831C235.716 611.614 235.25 611.447 234.318 612.171C228.594 616.617 230.442 641.8 230.473 649.444L229.861 650.162C227.303 650.757 224.482 650.42 221.869 650.336Q221.897 640.856 222.086 631.378C222.227 626.636 222.976 621.221 222.204 616.539C221.908 614.742 221.092 612.967 219.959 611.545C218.562 609.792 216.524 608.433 214.248 608.256C212.098 608.089 209.916 609.048 208.379 610.523C203.638 615.071 205.406 636.579 205.441 643.872C202.855 642.429 200.522 640.967 198.293 639.003C198.541 632.302 199.47 624.589 198.389 617.973C197.8 614.362 195.485 613.244 192.746 611.233C192.676 610.378 192.488 610.467 193.054 609.912C196.541 606.493 210.457 605.481 215.287 605.215Z"/>
	<path fill="#FEFEFE" d="M163.93 639.646Q165.467 639.533 167.008 639.581C178.982 639.896 202.886 663.285 211.371 672.322C210.271 674.363 209.073 676.047 207.57 677.811C195.892 679.806 178.42 678.306 166.202 678.042C150.191 677.216 133.722 678.06 117.828 676.248Q118.458 675.033 119.256 673.921C125.235 665.446 146.885 647.145 156.328 642.097C158.834 640.758 161.167 640.133 163.93 639.646Z"/>
	<path fill="#2B283D" d="M162.629 652.106C164.157 652.156 165.636 652.288 167.112 652.716Q167.636 652.865 168.141 653.068Q168.646 653.27 169.127 653.525Q169.608 653.78 170.059 654.083Q170.511 654.387 170.928 654.737Q171.346 655.086 171.724 655.477Q172.102 655.869 172.438 656.298Q172.773 656.726 173.061 657.188Q173.35 657.65 173.588 658.139C174.998 661.102 174.828 664.672 173.589 667.66C172.076 671.31 169.848 673.147 166.295 674.667C163.942 674.763 161.8 674.702 159.669 673.583Q159.17 673.32 158.7 673.008Q158.229 672.696 157.793 672.338Q157.357 671.98 156.96 671.58Q156.562 671.18 156.207 670.741Q155.852 670.303 155.543 669.83Q155.235 669.358 154.975 668.857Q154.716 668.356 154.509 667.831Q154.302 667.306 154.149 666.763C153.223 663.519 153.636 659.771 155.449 656.901C157.221 654.096 159.478 652.847 162.629 652.106Z"/>
	<path fill="#9A2536" d="M136.09 409.089C133.11 406.844 129.441 400.721 127.467 397.532C116.735 380.2 111.527 361.774 116.448 341.586C121.035 322.761 134.109 307.188 150.52 297.319Q151.386 296.792 152.265 296.286Q153.144 295.78 154.034 295.296Q154.925 294.812 155.828 294.35Q156.73 293.888 157.644 293.448Q158.557 293.008 159.482 292.591Q160.406 292.174 161.34 291.779Q162.274 291.385 163.217 291.013Q164.161 290.642 165.113 290.294Q166.065 289.945 167.026 289.621Q167.986 289.296 168.954 288.995Q169.922 288.694 170.898 288.417Q171.873 288.139 172.855 287.886Q173.837 287.633 174.824 287.404Q175.812 287.175 176.805 286.97Q177.798 286.765 178.796 286.585Q179.794 286.404 180.795 286.249Q181.797 286.093 182.803 285.961Q183.808 285.83 184.816 285.724Q185.825 285.617 186.835 285.535Q187.846 285.454 188.858 285.397Q189.871 285.34 190.884 285.308Q191.897 285.276 192.911 285.268Q193.925 285.261 194.939 285.279Q195.953 285.296 196.966 285.339Q197.979 285.381 198.99 285.449Q200.002 285.516 201.012 285.608Q202.022 285.7 203.029 285.817Q204.036 285.934 205.04 286.076Q206.044 286.217 207.044 286.383Q208.044 286.55 209.04 286.74Q210.036 286.931 211.027 287.146Q212.018 287.361 213.003 287.6C230.444 292.012 245.942 302.597 255.16 318.211C266.387 337.227 266.08 359.273 260.724 380.155C260.065 380.392 259.431 380.641 258.79 380.927L258.177 381.206C256.754 380.947 256.306 380.218 255.276 379.234Q251.025 396.453 245.313 413.245Q239.601 430.037 232.471 446.277C230.586 450.637 228.926 455.605 226.459 459.651L225.739 459.852C223.937 460.867 222.232 461.785 220.285 462.49L217.87 463.365C215.111 464.019 211.882 465.141 209.064 465.041L208.466 465.211C206.523 466.008 204.644 466.014 202.583 466.098C201.866 466.13 200.951 466.22 200.256 466.048C194.727 464.681 159.752 428.014 153.958 421.379C149.716 416.522 145.899 411.237 142.001 406.102C140.49 407.867 140.083 407.989 137.794 408.395C136.651 408.597 137.124 408.44 136.09 409.089Z"/>
	<path fill="#FEFEFE" d="M214.967 294.077C228.319 298.36 240.157 306.248 248.067 318.014C260.683 336.778 259.469 357.983 255.276 379.234Q251.025 396.453 245.313 413.245Q239.601 430.037 232.471 446.277C230.586 450.637 228.926 455.605 226.459 459.651L225.739 459.852C225.587 455.654 231.622 440.008 233.017 435.085C241.422 405.421 247.986 373.829 244.068 342.876C241.158 319.885 232.796 307.912 214.967 294.077Z"/>
	<path fill="#FEFEFE" d="M142.001 406.102C128.426 387.747 118.042 371.581 121.627 347.794C123.724 333.875 130.771 318.944 141.38 309.481C131.609 325.547 130.307 345.167 134.784 363.198C142.566 394.545 163.794 422.568 184.313 446.785C189.945 453.433 195.514 460.933 202.583 466.098C201.866 466.13 200.951 466.22 200.256 466.048C194.727 464.681 159.752 428.014 153.958 421.379C149.716 416.522 145.899 411.237 142.001 406.102Z"/>
	<path fill="#FEFEFE" d="M176.878 291.058C164.993 305.283 161.554 323.354 163.188 341.501C166.206 375.015 181.622 407.022 195.884 437.032C200.234 446.185 205.655 455.521 209.064 465.041L208.466 465.211C204.198 462.363 197.877 452.284 194.714 447.857C176.162 421.888 151.377 385.123 145.109 353.462C142.233 338.937 143.389 322.264 151.836 309.68C157.773 300.836 166.826 294.389 176.878 291.058Z"/>
	<path fill="#FEFEFE" d="M177.763 291.061C182.595 290.741 187.156 290.885 191.901 291.961C204.01 294.709 214.618 301.821 221.21 312.4C239.81 342.25 231.903 395.439 226.441 428.596C224.578 439.903 222.813 451.311 220.285 462.49L217.87 463.365C216.564 458.518 217.693 440.904 217.66 434.547C217.505 404.992 218.108 363.042 210.421 334.943C205.046 315.297 195.568 301.217 177.763 291.061Z"/>
</svg>
